<?xml version="1.0" standalone="no"?>
<!DOCTYPE svg PUBLIC "-//W3C//DTD SVG 20010904//EN"
 "http://www.w3.org/TR/2001/REC-SVG-20010904/DTD/svg10.dtd">
<svg version="1.0" xmlns="http://www.w3.org/2000/svg"
 width="730.000000pt" height="548.000000pt" viewBox="0 0 730.000000 548.000000"
 preserveAspectRatio="xMidYMid meet">

<g transform="translate(0.000000,548.000000) scale(0.100000,-0.100000)"
fill="#13B94C" stroke="none">
<path d="M3950 5079 c-123 -14 -230 -39 -324 -75 -189 -73 -296 -145 -446
-300 -156 -161 -229 -290 -272 -477 -18 -78 -22 -123 -21 -302 0 -130 6 -274
17 -378 25 -230 33 -211 -203 -447 -199 -199 -273 -290 -338 -415 -110 -213
-146 -421 -123 -720 18 -232 56 -378 185 -700 96 -242 163 -454 150 -475 -3
-5 -23 -14 -44 -20 -49 -13 -80 -47 -89 -100 -4 -24 -14 -47 -22 -51 -8 -4
-91 -32 -185 -61 -179 -56 -196 -68 -160 -108 16 -17 22 -16 173 36 196 67
229 73 262 46 20 -16 22 -22 10 -26 -8 -3 -75 -23 -147 -46 -73 -23 -135 -45
-138 -51 -12 -18 6 -49 29 -49 12 0 110 29 218 65 108 36 200 65 203 65 20 0
-13 -21 -64 -40 -76 -28 -87 -40 -63 -70 l19 -23 74 30 c140 57 399 139 399
126 0 -2 -38 -22 -85 -45 -69 -33 -85 -45 -85 -63 0 -44 20 -45 105 -5 136 65
476 172 493 155 3 -3 -3 -8 -13 -11 -11 -3 -74 -27 -140 -53 -95 -38 -120 -52
-120 -67 0 -34 45 -27 225 35 96 33 195 65 220 71 25 6 53 14 64 17 11 3 16 1
12 -5 -3 -6 -35 -20 -70 -32 -63 -21 -77 -33 -69 -57 7 -20 29 -16 230 38 219
58 313 79 313 69 0 -4 -65 -24 -145 -45 -136 -35 -145 -39 -145 -62 0 -36 24
-39 119 -13 230 61 304 79 348 85 66 10 46 -5 -52 -40 -97 -34 -111 -45 -96
-74 15 -27 24 -27 112 10 100 41 366 123 464 144 44 9 84 20 89 25 13 13 -10
38 -37 42 -18 2 -22 9 -20 33 4 66 -7 94 -57 144 l-49 49 15 51 c8 28 24 99
35 158 48 261 60 361 66 585 l6 228 40 -23 c22 -12 50 -35 63 -50 27 -32 52
-111 56 -177 3 -44 3 -44 -35 -51 -20 -3 -39 -8 -41 -10 -33 -36 -56 -88 -56
-126 0 -58 11 -76 59 -98 l41 -18 -6 -52 c-7 -60 10 -106 55 -149 49 -47 90
-37 193 45 l27 22 36 -31 c31 -28 43 -32 90 -32 46 0 59 5 89 30 19 18 40 49
48 73 11 36 20 46 65 67 28 14 61 33 72 44 46 42 35 148 -19 187 -37 28 -44
46 -75 209 -44 221 -99 334 -225 461 -36 36 -94 85 -129 109 -113 76 -310 161
-466 200 -34 8 -46 19 -79 72 -22 35 -58 92 -80 128 -55 87 -161 192 -271 266
-101 69 -136 88 -280 154 -161 73 -267 133 -278 158 -15 32 13 210 45 290 44
107 100 167 221 233 42 23 51 33 52 55 0 24 8 30 78 57 42 17 77 36 77 43 0 7
-13 18 -30 26 -52 23 -46 26 115 63 43 10 152 19 280 25 240 9 299 24 364 89
58 58 75 103 79 207 5 110 -18 206 -78 329 -103 210 -273 328 -533 370 -99 16
-276 18 -397 4z m456 -89 c110 -28 230 -89 288 -147 62 -63 118 -158 152 -258
22 -68 26 -93 22 -165 -7 -141 -64 -230 -167 -260 -20 -6 -124 -15 -231 -20
-244 -12 -344 -28 -486 -81 -59 -22 -66 -37 -33 -70 11 -11 19 -22 17 -25 -3
-2 -36 -17 -74 -32 -67 -28 -75 -37 -60 -72 4 -10 -3 -21 -21 -32 -67 -39
-120 -97 -151 -166 -43 -93 -83 -251 -85 -336 -2 -68 -2 -68 38 -103 22 -19
140 -84 263 -144 360 -176 437 -239 571 -463 134 -224 153 -271 211 -528 40
-175 42 -190 43 -363 1 -171 -1 -194 -46 -463 -28 -171 -57 -311 -73 -355 -51
-142 -58 -183 -43 -229 12 -39 12 -41 -11 -60 -37 -30 -174 -21 -246 15 -65
33 -104 78 -104 121 0 18 -13 90 -30 162 -16 71 -30 142 -30 158 0 16 -23 127
-50 247 -49 212 -112 402 -147 442 -29 32 -371 19 -618 -24 -75 -13 -225 -57
-226 -67 0 -4 -2 -131 -4 -283 -6 -417 -26 -593 -84 -723 -30 -68 -68 -86
-212 -101 -60 -6 -68 -5 -94 18 l-28 24 22 36 c22 36 22 39 7 84 -8 27 -27 94
-41 151 -14 56 -70 216 -124 355 -111 284 -132 346 -160 467 -37 158 -54 487
-32 623 15 88 79 268 125 351 55 97 137 196 321 384 181 185 202 218 212 326
3 36 0 163 -6 283 -15 273 -4 485 29 583 84 241 212 417 400 546 146 100 259
148 433 184 220 44 414 48 563 10z m379 -2610 c54 -16 103 -30 111 -30 23 0
156 -74 241 -134 101 -70 162 -138 208 -231 35 -72 92 -285 97 -365 4 -61 -18
-64 -59 -6 -17 25 -43 52 -57 61 -23 15 -27 15 -60 0 -46 -22 -126 -108 -126
-136 0 -32 48 -114 82 -139 17 -12 48 -25 70 -27 34 -5 43 -2 73 27 19 18 38
51 45 76 14 49 18 50 90 16 90 -43 11 -143 -101 -128 -46 6 -49 5 -55 -19 -4
-18 -1 -32 12 -46 26 -29 9 -69 -39 -92 -35 -18 -39 -18 -62 -3 -14 9 -28 29
-31 44 -23 93 -69 111 -105 40 -26 -53 -87 -118 -111 -118 -37 0 -51 77 -22
118 9 13 27 34 40 47 29 30 30 39 3 66 -17 17 -28 20 -53 14 -17 -4 -44 -8
-61 -9 -25 -1 -30 3 -33 25 -2 17 6 37 21 55 24 28 25 28 75 15 59 -15 72 -10
72 25 0 35 -47 200 -71 245 -26 52 -79 103 -144 140 -30 17 -56 38 -59 47 -3
9 -14 75 -26 146 -11 71 -34 169 -49 217 -16 49 -25 89 -21 89 4 0 51 -13 105
-30z m-1035 -668 c0 -4 -14 -13 -31 -21 -17 -7 -51 -29 -76 -48 -52 -40 -66
-35 -61 23 l3 39 60 6 c97 9 105 9 105 1z m-240 -64 c0 -10 -11 -25 -25 -34
-23 -15 -26 -14 -70 22 -25 21 -45 42 -45 46 0 4 26 8 58 10 60 3 82 -8 82
-44z m389 -11 c32 -39 65 -158 121 -440 7 -34 5 -40 -17 -54 -38 -25 -172 -30
-229 -8 -53 20 -104 62 -133 109 -19 31 -46 125 -38 133 3 2 18 -10 35 -27 37
-37 56 -38 78 -5 32 49 -8 135 -62 135 l-25 0 23 41 c27 48 60 74 137 105 64
27 94 30 110 11z m-533 -53 c33 -16 109 -93 100 -102 -2 -2 -14 1 -25 7 -17 9
-24 8 -41 -9 -26 -26 -26 -68 2 -97 23 -25 67 -30 86 -11 21 21 26 -1 14 -59
-15 -73 -49 -115 -119 -150 -46 -22 -71 -28 -118 -27 -33 1 -72 7 -87 13 l-28
11 0 128 c0 71 3 163 6 206 l7 76 46 14 c62 20 116 19 157 0z m1950 -38 c9
-36 -4 -65 -31 -72 -30 -8 -45 2 -45 28 0 24 37 68 57 68 7 0 15 -11 19 -24z
m-1766 -47 c0 -18 -2 -19 -15 -9 -8 7 -15 16 -15 21 0 5 7 9 15 9 9 0 15 -9
15 -21z m70 -358 c27 -27 75 -62 107 -78 53 -25 68 -28 165 -28 67 0 108 -4
108 -10 0 -31 -134 -175 -163 -175 -27 0 -153 90 -217 155 -32 32 -63 55 -75
55 -14 0 -37 -19 -63 -51 -22 -27 -80 -86 -129 -129 -79 -71 -90 -77 -108 -66
-27 18 -84 133 -91 187 l-6 44 94 0 c85 0 99 3 158 32 36 18 88 50 115 72 28
22 51 40 53 40 2 1 25 -21 52 -48z m65 -286 c61 -52 120 -98 133 -101 42 -12
76 8 159 93 46 47 86 84 88 81 2 -2 9 -46 15 -98 9 -75 17 -105 41 -144 16
-27 28 -50 27 -51 -2 -1 -62 -15 -134 -30 l-131 -28 -47 23 -47 22 -127 -29
c-112 -26 -127 -28 -130 -14 -11 49 -62 52 -205 11 l-105 -30 -37 21 c-28 17
-45 20 -81 15 -24 -3 -44 -3 -44 0 0 3 14 55 32 116 31 108 32 110 47 87 39
-59 93 -119 106 -119 8 0 83 61 166 135 83 74 154 135 158 135 3 0 56 -43 116
-95z m1000 -164 c-3 -14 -14 -34 -24 -45 -18 -17 -19 -17 -36 28 -17 43 -17
47 0 73 l18 27 24 -29 c18 -21 23 -35 18 -54z m-2099 -56 c-1 -36 -3 -65 -6
-65 -3 0 -20 9 -37 20 -41 24 -44 60 -9 95 39 38 53 25 52 -50z"/>
</g>
</svg>
